<svg width="189" height="69" viewBox="0 0 189 69" fill="none" xmlns="http://www.w3.org/2000/svg">
<path d="M31.056 34.8C30.672 35.12 29.952 35.552 28.896 36.096C27.872 36.64 26.608 37.12 25.104 37.536C23.6 37.952 21.936 38.144 20.112 38.112C17.328 38.048 14.832 37.552 12.624 36.624C10.448 35.664 8.592 34.368 7.056 32.736C5.552 31.104 4.4 29.232 3.6 27.12C2.8 25.008 2.4 22.752 2.4 20.352C2.4 17.664 2.8 15.2 3.6 12.96C4.432 10.72 5.6 8.784 7.104 7.152C8.64 5.52 10.464 4.256 12.576 3.36C14.688 2.464 17.024 2.016 19.584 2.016C21.952 2.016 24.048 2.336 25.872 2.976C27.696 3.616 29.184 4.304 30.336 5.04L27.6 11.616C26.8 11.008 25.728 10.384 24.384 9.744C23.072 9.072 21.552 8.736 19.824 8.736C18.48 8.736 17.184 9.024 15.936 9.6C14.72 10.144 13.632 10.928 12.672 11.952C11.744 12.976 11.008 14.176 10.464 15.552C9.92 16.896 9.648 18.368 9.648 19.968C9.648 21.664 9.888 23.216 10.368 24.624C10.88 26.032 11.6 27.248 12.528 28.272C13.456 29.264 14.56 30.032 15.84 30.576C17.152 31.12 18.624 31.392 20.256 31.392C22.144 31.392 23.76 31.088 25.104 30.48C26.448 29.872 27.472 29.232 28.176 28.56L31.056 34.8ZM35.2928 26.976C35.2928 24.832 35.7888 22.912 36.7808 21.216C37.8048 19.52 39.2288 18.192 41.0528 17.232C42.8768 16.24 44.9728 15.744 47.3408 15.744C49.7408 15.744 51.8208 16.24 53.5808 17.232C55.3408 18.192 56.6848 19.52 57.6128 21.216C58.5728 22.912 59.0528 24.832 59.0528 26.976C59.0528 29.12 58.5728 31.056 57.6128 32.784C56.6848 34.48 55.3408 35.824 53.5808 36.816C51.8208 37.808 49.7088 38.304 47.2448 38.304C44.9408 38.304 42.8768 37.856 41.0528 36.96C39.2608 36.064 37.8528 34.768 36.8288 33.072C35.8048 31.376 35.2928 29.344 35.2928 26.976ZM42.0608 27.024C42.0608 28.112 42.2848 29.104 42.7328 30C43.1808 30.864 43.7888 31.552 44.5568 32.064C45.3248 32.576 46.1888 32.832 47.1488 32.832C48.2048 32.832 49.1168 32.576 49.8848 32.064C50.6528 31.552 51.2448 30.864 51.6608 30C52.0768 29.104 52.2848 28.112 52.2848 27.024C52.2848 25.904 52.0768 24.912 51.6608 24.048C51.2448 23.184 50.6528 22.496 49.8848 21.984C49.1168 21.472 48.2048 21.216 47.1488 21.216C46.1888 21.216 45.3248 21.472 44.5568 21.984C43.7888 22.496 43.1808 23.184 42.7328 24.048C42.2848 24.912 42.0608 25.904 42.0608 27.024ZM75.1946 48.288C73.3066 48.288 71.7066 48.064 70.3946 47.616C69.1146 47.168 68.0266 46.624 67.1306 45.984C66.2346 45.344 65.4346 44.736 64.7306 44.16L68.6666 39.552C69.4026 40.224 70.2506 40.864 71.2106 41.472C72.2026 42.112 73.4986 42.432 75.0986 42.432C76.1546 42.432 77.1306 42.24 78.0266 41.856C78.9546 41.504 79.6906 40.976 80.2346 40.272C80.8106 39.568 81.0986 38.688 81.0986 37.632V33.024L81.3386 34.224C80.8266 35.312 79.8986 36.272 78.5546 37.104C77.2106 37.904 75.4506 38.304 73.2746 38.304C71.3866 38.304 69.6266 37.824 67.9946 36.864C66.3946 35.872 65.1146 34.544 64.1546 32.88C63.1946 31.184 62.7146 29.264 62.7146 27.12C62.7146 24.912 63.2266 22.96 64.2506 21.264C65.2746 19.536 66.6026 18.176 68.2346 17.184C69.8666 16.192 71.5946 15.696 73.4186 15.696C75.2426 15.696 76.8106 15.968 78.1226 16.512C79.4666 17.024 80.4746 17.664 81.1466 18.432L80.9066 19.056L81.6266 16.752H87.8186V37.728C87.8186 39.776 87.2426 41.584 86.0906 43.152C84.9386 44.752 83.4026 46 81.4826 46.896C79.5946 47.824 77.4986 48.288 75.1946 48.288ZM69.4826 26.928C69.4826 28.048 69.7386 29.056 70.2506 29.952C70.7626 30.848 71.4506 31.552 72.3146 32.064C73.2106 32.576 74.2026 32.832 75.2906 32.832C76.2186 32.832 77.0346 32.72 77.7386 32.496C78.4746 32.24 79.1146 31.888 79.6586 31.44C80.2346 30.96 80.7146 30.368 81.0986 29.664V24.528C80.8106 23.824 80.3786 23.232 79.8026 22.752C79.2266 22.24 78.5546 21.856 77.7866 21.6C77.0506 21.312 76.2186 21.168 75.2906 21.168C74.2026 21.168 73.2106 21.424 72.3146 21.936C71.4506 22.416 70.7626 23.088 70.2506 23.952C69.7386 24.816 69.4826 25.808 69.4826 26.928ZM100.818 16.752L101.346 20.496L101.25 20.16C101.986 18.848 103.026 17.792 104.37 16.992C105.714 16.16 107.362 15.744 109.314 15.744C111.298 15.744 112.946 16.336 114.258 17.52C115.602 18.672 116.29 20.176 116.322 22.032V37.728H109.602V24.528C109.57 23.6 109.314 22.864 108.834 22.32C108.386 21.744 107.618 21.456 106.53 21.456C105.506 21.456 104.61 21.792 103.842 22.464C103.074 23.136 102.482 24.048 102.066 25.2C101.65 26.352 101.442 27.68 101.442 29.184V37.728H94.7216V16.752H100.818ZM123.222 16.752H129.942V37.728H123.222V16.752ZM123.078 9.312C123.078 8.32 123.462 7.504 124.23 6.864C125.03 6.224 125.878 5.904 126.774 5.904C127.67 5.904 128.486 6.224 129.222 6.864C129.99 7.504 130.374 8.32 130.374 9.312C130.374 10.304 129.99 11.12 129.222 11.76C128.486 12.368 127.67 12.672 126.774 12.672C125.878 12.672 125.03 12.368 124.23 11.76C123.462 11.12 123.078 10.304 123.078 9.312ZM138.878 37.728V22.608H135.326V16.656H138.878V9.36C138.878 6.608 139.662 4.368 141.23 2.64C142.83 0.88 145.134 0 148.142 0C149.038 0 150.03 0.144 151.118 0.432C152.238 0.687999 153.214 1.12 154.046 1.728L151.214 6.576C150.894 6.16 150.51 5.888 150.062 5.76C149.646 5.6 149.246 5.52 148.862 5.52C147.902 5.52 147.118 5.84 146.51 6.48C145.902 7.12 145.598 8.144 145.598 9.552V16.656H151.934V22.608H145.598V37.728H138.878ZM159.402 47.808L173.37 16.752H179.418L165.882 47.808H159.402ZM165.018 37.824L154.746 16.752H162.282L170.202 34.464L165.018 37.824Z" fill="white"/>
<path d="M156.994 40.728C156.206 41.9989 155.75 43.4976 155.75 45.103C155.75 49.6938 159.472 53.4155 164.062 53.4155C168.653 53.4154 172.375 49.6938 172.375 45.103C172.375 43.4974 171.918 41.9989 171.13 40.728L188.125 40.728L188.125 50.1342L179.682 50.1342C179.399 51.012 179.044 51.8573 178.625 52.6635L186.044 60.0815L178.929 67.1967L171.474 59.7426C171.125 59.9197 170.769 60.0855 170.406 60.2378L170.406 68.728L160.344 68.728L160.344 61.0864C159.346 60.8552 158.384 60.5324 157.465 60.1284L150.396 67.1968L143.281 60.0815L149.928 53.435C149.317 52.402 148.816 51.2966 148.442 50.1343L140 50.1343L140 40.728L156.994 40.728Z" fill="#D2D2D2"/>
</svg>
