<svg width="800" height="296" viewBox="0 0 308 114" fill="none" xmlns="http://www.w3.org/2000/svg">
<path d="M47.5221 57.7232C46.8853 58.254 45.6913 58.9706 43.9401 59.8729C42.2419 60.7752 40.1457 61.5714 37.6515 62.2614C35.1574 62.9515 32.3978 63.2699 29.373 63.2169C24.7561 63.1107 20.6168 62.288 16.9551 60.7487C13.3465 59.1563 10.2686 57.0066 7.72135 54.2996C5.22717 51.5926 3.31673 48.4875 1.99004 44.9843C0.663346 41.4811 0 37.739 0 33.7581C0 29.2995 0.663346 25.2124 1.99004 21.4969C3.3698 17.7814 5.30677 14.5701 7.80095 11.8631C10.3482 9.15609 13.3731 7.05948 16.8755 5.57327C20.378 4.08707 24.2519 3.34396 28.4974 3.34396C32.4244 3.34396 35.9003 3.87475 38.9252 4.93633C41.95 5.9979 44.4177 7.1391 46.3281 8.35991L41.7908 19.2676C40.4641 18.2591 38.6864 17.2241 36.4575 16.1625C34.2817 15.0478 31.761 14.4905 28.8954 14.4905C26.6665 14.4905 24.5173 14.9682 22.4476 15.9236C20.4311 16.826 18.6268 18.1264 17.0347 19.8249C15.4958 21.5235 14.2752 23.5139 13.3731 25.7963C12.4709 28.0256 12.0198 30.4672 12.0198 33.1212C12.0198 35.9344 12.4178 38.5087 13.2139 40.8441C14.0629 43.1796 15.257 45.1966 16.7959 46.8951C18.3349 48.5406 20.1657 49.8145 22.2884 50.7168C24.4642 51.6191 26.9053 52.0703 29.6118 52.0703C32.7428 52.0703 35.4227 51.5661 37.6515 50.5576C39.8804 49.5491 41.5785 48.4875 42.746 47.3728L47.5221 57.7232Z" fill="#DCD8FF"/>
<path d="M54.5482 44.7454C54.5482 41.1892 55.3708 38.0044 57.0159 35.1912C58.714 32.3781 61.0755 30.1753 64.1004 28.5829C67.1253 26.9375 70.6012 26.1148 74.5282 26.1148C78.5083 26.1148 81.9577 26.9375 84.8764 28.5829C87.7951 30.1753 90.024 32.3781 91.5629 35.1912C93.155 38.0044 93.951 41.1892 93.951 44.7454C93.951 48.3017 93.155 51.513 91.5629 54.3792C90.024 57.1924 87.7951 59.4217 84.8764 61.0672C81.9577 62.7126 78.4552 63.5353 74.369 63.5353C70.5481 63.5353 67.1253 62.7922 64.1004 61.306C61.1286 59.8198 58.7936 57.6701 57.0955 54.8569C55.3973 52.0438 54.5482 48.6733 54.5482 44.7454ZM65.772 44.8251C65.772 46.6297 66.1435 48.2752 66.8865 49.7614C67.6294 51.1945 68.6377 52.3357 69.9113 53.185C71.1849 54.0342 72.6178 54.4589 74.2098 54.4589C75.961 54.4589 77.4735 54.0342 78.7471 53.185C80.0207 52.3357 81.0025 51.1945 81.6923 49.7614C82.3822 48.2752 82.7272 46.6297 82.7272 44.8251C82.7272 42.9673 82.3822 41.3218 81.6923 39.8887C81.0025 38.4556 80.0207 37.3144 78.7471 36.4651C77.4735 35.6159 75.961 35.1912 74.2098 35.1912C72.6178 35.1912 71.1849 35.6159 69.9113 36.4651C68.6377 37.3144 67.6294 38.4556 66.8865 39.8887C66.1435 41.3218 65.772 42.9673 65.772 44.8251Z" fill="#DCD8FF"/>
<path d="M120.72 80.0959C117.589 80.0959 114.936 79.7244 112.76 78.9813C110.637 78.2382 108.833 77.3358 107.347 76.2742C105.861 75.2127 104.534 74.2042 103.367 73.2487L109.894 65.6054C111.115 66.7201 112.521 67.7816 114.113 68.7901C115.758 69.8517 117.908 70.3825 120.561 70.3825C122.312 70.3825 123.931 70.064 125.417 69.4271C126.956 68.8432 128.176 67.9674 129.078 66.7997C130.034 65.6319 130.511 64.1723 130.511 62.4207V54.7773L130.909 56.7678C130.06 58.5725 128.521 60.1648 126.292 61.5449C124.063 62.8718 121.145 63.5353 117.536 63.5353C114.405 63.5353 111.486 62.7392 108.78 61.1468C106.127 59.5013 104.004 57.2986 102.412 54.5385C100.82 51.7253 100.024 48.5406 100.024 44.9843C100.024 41.3218 100.873 38.084 102.571 35.2709C104.269 32.4046 106.471 30.1488 109.178 28.5033C111.884 26.8579 114.75 26.0352 117.775 26.0352C120.8 26.0352 123.4 26.4863 125.576 27.3887C127.805 28.2379 129.476 29.2995 130.591 30.5734L130.193 31.6084L131.387 27.7868H141.655V62.5799C141.655 65.977 140.7 68.9759 138.79 71.5768C136.879 74.2307 134.332 76.3008 131.148 77.787C128.017 79.3263 124.541 80.0959 120.72 80.0959ZM111.248 44.6658C111.248 46.5236 111.672 48.1956 112.521 49.6818C113.37 51.168 114.511 52.3357 115.944 53.185C117.43 54.0342 119.075 54.4589 120.879 54.4589C122.418 54.4589 123.772 54.2731 124.939 53.9015C126.16 53.4769 127.221 52.893 128.123 52.1499C129.078 51.3537 129.874 50.3718 130.511 49.2041V40.6849C130.033 39.5172 129.317 38.5352 128.362 37.739C127.407 36.8898 126.292 36.2528 125.019 35.8282C123.798 35.3505 122.418 35.1116 120.879 35.1116C119.075 35.1116 117.43 35.5363 115.944 36.3855C114.511 37.1817 113.37 38.2964 112.521 39.7295C111.672 41.1626 111.248 42.8081 111.248 44.6658Z" fill="#DCD8FF"/>
<path d="M163.212 27.7868L164.088 33.997L163.929 33.4396C165.149 31.2634 166.874 29.5118 169.103 28.1848C171.332 26.8048 174.065 26.1148 177.302 26.1148C180.592 26.1148 183.325 27.0967 185.501 29.0606C187.73 30.9715 188.871 33.4662 188.924 36.5448V62.5799H177.78V40.6849C177.726 39.1456 177.302 37.9248 176.506 37.0225C175.763 36.067 174.489 35.5893 172.685 35.5893C170.987 35.5893 169.501 36.1467 168.227 37.2613C166.954 38.376 165.972 39.8887 165.282 41.7996C164.592 43.7104 164.247 45.9132 164.247 48.4079V62.5799H153.103V27.7868H163.212Z" fill="#DCD8FF"/>
<path d="M200.366 27.7868H211.511V62.5799H200.366V27.7868ZM200.128 15.4459C200.128 13.8005 200.764 12.447 202.038 11.3854C203.365 10.3238 204.771 9.79304 206.257 9.79304C207.743 9.79304 209.096 10.3238 210.317 11.3854C211.59 12.447 212.227 13.8005 212.227 15.4459C212.227 17.0914 211.59 18.4449 210.317 19.5065C209.096 20.515 207.743 21.0192 206.257 21.0192C204.771 21.0192 203.365 20.515 202.038 19.5065C200.764 18.4449 200.128 17.0914 200.128 15.4459Z" fill="#DCD8FF"/>
<path d="M226.331 62.5799V37.5002H220.44V27.6275H226.331V15.5255C226.331 10.9608 227.631 7.24525 230.231 4.379C232.885 1.45967 236.706 0 241.694 0C243.18 0 244.825 0.238855 246.629 0.716564C248.487 1.14119 250.105 1.85775 251.485 2.86625L246.788 10.9077C246.258 10.2177 245.621 9.7665 244.878 9.55418C244.188 9.28879 243.525 9.15609 242.888 9.15609C241.296 9.15609 239.996 9.68688 238.988 10.7485C237.979 11.81 237.475 13.5086 237.475 15.844V27.6275H247.982V37.5002H237.475V62.5799H226.331Z" fill="#DCD8FF"/>
<path d="M260.366 79.2997L283.53 27.7868H293.56L271.112 79.2997H260.366ZM269.68 62.7391L252.645 27.7868H265.142L278.276 57.1659L269.68 62.7391Z" fill="#DCD8FF"/>
<path d="M256.374 67.556C255.066 69.664 254.31 72.15 254.31 74.8129C254.31 82.4278 260.482 88.601 268.096 88.601C275.709 88.6008 281.881 82.4277 281.881 74.8129C281.881 72.1497 281.123 69.6642 279.816 67.556H308V83.1583L293.998 83.1583C293.529 84.6143 292.941 86.0163 292.246 87.3537L304.549 99.658L292.749 111.46L280.386 99.0959C279.807 99.3895 279.217 99.6646 278.616 99.9171V114H261.929V101.325C260.274 100.941 258.678 100.406 257.154 99.7357L245.432 111.46L233.633 99.658L244.655 88.6334C243.643 86.9198 242.812 85.0864 242.192 83.1583H228.191V67.556H256.374Z" fill="#D2D2D2"/>
</svg>
