<svg width="500" height="500" viewBox="218 20 100 100" fill="none" xmlns="http://www.w3.org/2000/svg">
<path d="M256.374 67.556C255.066 69.664 254.31 72.15 254.31 74.8129C254.31 82.4278 260.482 88.601 268.096 88.601C275.709 88.6008 281.881 82.4277 281.881 74.8129C281.881 72.1497 281.123 69.6642 279.816 67.556H308V83.1583L293.998 83.1583C293.529 84.6143 292.941 86.0163 292.246 87.3537L304.549 99.658L292.749 111.46L280.386 99.0959C279.807 99.3895 279.217 99.6646 278.616 99.9171V114H261.929V101.325C260.274 100.941 258.678 100.406 257.154 99.7357L245.432 111.46L233.633 99.658L244.655 88.6334C243.643 86.9198 242.812 85.0864 242.192 83.1583H228.191V67.556H256.374Z" fill="#7E6FAE"/>
</svg>
