<svg width="98" height="98" viewBox="0 0 98 98" fill="none" xmlns="http://www.w3.org/2000/svg">
<path d="M49 0C22.05 0 0 22.05 0 49C0 75.95 22.05 98 49 98C75.95 98 98 75.95 98 49C98 22.05 75.95 0 49 0ZM49 12.25C69.335 12.25 85.75 28.665 85.75 49C85.75 69.335 69.335 85.75 49 85.75C28.665 85.75 12.25 69.335 12.25 49C12.25 28.665 28.665 12.25 49 12.25ZM42.875 24.5V51.695L44.835 53.2875L50.96 59.4125L55.125 64.0675L63.945 55.2475L59.29 51.0825L55.125 46.9175V24.745H42.875V24.5Z" fill="#797979"/>
</svg>
